<?xml version="1.0" encoding="UTF-8"?>
<svg id="Layer_1" data-name="Layer 1" xmlns="http://www.w3.org/2000/svg" viewBox="0 0 300 200">
  <defs>
    <style>
      .cls-1 {
        opacity: .5;
      }

      .cls-1, .cls-2, .cls-3 {
        fill: #fff;
      }

      .cls-2 {
        opacity: .75;
      }
    </style>
  </defs>
  <g>
    <path class="cls-1" d="M246.05,163.31c0-.43.15-.87.43-1.27l7.64-10.52-7.49-10.47c-.31-.43-.46-.87-.46-1.35,0-1.07.94-1.89,2.17-1.89.76,0,1.2.25,1.68.94l6.55,9.45h.1l6.39-9.35c.51-.74.99-1.04,1.71-1.04,1.25,0,2.19.82,2.19,1.89,0,.46-.15.92-.43,1.3l-7.57,10.34,7.46,10.62c.31.46.46.89.46,1.32,0,1.1-.92,1.94-2.11,1.94-.71,0-1.3-.28-1.68-.87l-6.57-9.68h-.1l-6.62,9.68c-.41.59-.94.87-1.66.87-1.2,0-2.09-.82-2.09-1.91Z"/>
    <path class="cls-1" d="M200.76,151.51c0-8.46,4.94-13.71,12.28-13.71s12.25,5.25,12.25,13.71-4.94,13.71-12.25,13.71-12.28-5.27-12.28-13.71ZM220.79,151.51c0-6.24-3.06-9.81-7.74-9.81s-7.77,3.57-7.77,9.81,3.08,9.81,7.77,9.81,7.74-3.57,7.74-9.81Z"/>
    <path class="cls-1" d="M166.64,162.98l-8.43-21.99c-.15-.38-.23-.76-.23-1.15,0-1.22.89-2.04,2.22-2.04.99,0,1.66.53,2.06,1.68l7.26,20.56h.1l7.29-20.56c.41-1.15,1.07-1.68,2.04-1.68,1.32,0,2.19.82,2.19,2.04,0,.38-.08.76-.23,1.15l-8.41,21.99c-.59,1.53-1.53,2.24-2.96,2.24s-2.27-.64-2.9-2.24Z"/>
    <path class="cls-1" d="M114.27,151.61c0-8.36,4.71-13.81,12.02-13.81,6.78,0,11.54,5.07,11.54,12.33,0,1.6-.92,2.57-2.45,2.57h-16.56c0,5.35,2.93,8.66,7.67,8.66,3.16,0,5.1-1.12,7.16-4.13.46-.64.97-.89,1.66-.89,1.17,0,1.96.76,1.96,1.94,0,.36-.13.82-.33,1.3-1.71,3.59-5.43,5.63-10.27,5.63-7.82,0-12.41-5.04-12.41-13.6ZM133.25,149.24c-.1-4.59-2.93-7.59-7.03-7.59s-7.08,3.03-7.36,7.59h14.39Z"/>
    <path class="cls-1" d="M71.09,151.61c0-8.36,4.71-13.81,12.02-13.81,6.78,0,11.54,5.07,11.54,12.33,0,1.6-.92,2.57-2.45,2.57h-16.56c0,5.35,2.93,8.66,7.67,8.66,3.16,0,5.1-1.12,7.16-4.13.46-.64.97-.89,1.66-.89,1.17,0,1.96.76,1.96,1.94,0,.36-.13.82-.33,1.3-1.71,3.59-5.43,5.63-10.27,5.63-7.82,0-12.41-5.04-12.41-13.6ZM90.07,149.24c-.1-4.59-2.93-7.59-7.03-7.59s-7.08,3.03-7.36,7.59h14.39Z"/>
    <path class="cls-1" d="M38.43,141.91h-2.22c-1.27,0-1.99-.66-1.99-1.83s.71-1.81,1.99-1.81h2.22v-4.53c0-1.4.92-2.37,2.22-2.37s2.22.97,2.22,2.37v4.53h3.41c1.27,0,1.99.66,1.99,1.81s-.71,1.83-1.99,1.83h-3.41v15.77c0,2.24.79,3.31,3.01,3.46l.38.03c1.45.1,2.11.69,2.11,1.73,0,1.35-.76,2.06-3.24,2.06h-.28c-4.28,0-6.42-2.09-6.42-6.32v-16.74Z"/>
  </g>
  <path class="cls-1" d="M215.22,121.73h-4.35v-15.33c-9.77-1.08-17.39-9.39-17.39-19.45,0-10.79,8.78-19.57,19.57-19.57s19.57,8.78,19.57,19.57c0,10.05-7.62,18.36-17.39,19.45v15.33M213.04,71.74c-8.39,0-15.22,6.83-15.22,15.22s6.83,15.22,15.22,15.22,15.22-6.83,15.22-15.22-6.83-15.22-15.22-15.22Z"/>
  <g>
    <circle class="cls-2" cx="202.17" cy="89.12" r="2.17"/>
    <circle class="cls-2" cx="206.52" cy="93.47" r="2.17"/>
    <circle class="cls-2" cx="210.87" cy="97.82" r="2.17"/>
    <circle class="cls-2" cx="208.7" cy="86.95" r="2.17"/>
    <circle class="cls-2" cx="213.04" cy="91.29" r="2.17"/>
    <circle class="cls-2" cx="217.39" cy="95.64" r="2.17"/>
    <circle class="cls-2" cx="204.35" cy="82.6" r="2.17"/>
    <path class="cls-3" d="M228.26,86.96c0,8.4-6.81,15.22-15.22,15.22s-15.22-6.81-15.22-15.22,6.81-15.22,15.22-15.22,15.22,6.81,15.22,15.22ZM202.17,86.95c-1.2,0-2.17.97-2.17,2.17s.97,2.17,2.17,2.17,2.17-.97,2.17-2.17-.97-2.17-2.17-2.17ZM206.52,91.29c-1.2,0-2.17.97-2.17,2.17s.97,2.17,2.17,2.17,2.17-.97,2.17-2.17-.97-2.17-2.17-2.17ZM210.87,95.64c-1.2,0-2.17.97-2.17,2.17s.97,2.17,2.17,2.17,2.17-.97,2.17-2.17-.97-2.17-2.17-2.17ZM208.7,84.77c-1.2,0-2.17.97-2.17,2.17s.97,2.17,2.17,2.17,2.17-.97,2.17-2.17-.97-2.17-2.17-2.17ZM213.04,89.12c-1.2,0-2.17.97-2.17,2.17s.97,2.17,2.17,2.17,2.17-.97,2.17-2.17-.97-2.17-2.17-2.17ZM217.39,93.47c-1.2,0-2.17.97-2.17,2.17s.97,2.17,2.17,2.17,2.17-.97,2.17-2.17-.97-2.17-2.17-2.17ZM204.35,80.42c-1.2,0-2.17.97-2.17,2.17s.97,2.17,2.17,2.17,2.17-.97,2.17-2.17-.97-2.17-2.17-2.17Z"/>
  </g>
  <path class="cls-1" d="M247.83,89.13c-1.2,0-2.17-.97-2.17-2.17,0-17.98-14.63-32.61-32.61-32.61-1.2,0-2.17-.97-2.17-2.17s.97-2.17,2.17-2.17c20.38,0,36.96,16.58,36.96,36.96,0,1.2-.97,2.17-2.17,2.17Z"/>
  <path class="cls-1" d="M265.22,89.13c-1.2,0-2.17-.97-2.17-2.17,0-27.57-22.43-50-50-50-1.2,0-2.17-.97-2.17-2.17s.97-2.17,2.17-2.17c29.97,0,54.35,24.38,54.35,54.35,0,1.2-.97,2.17-2.17,2.17Z"/>
</svg>