<?xml version="1.0" encoding="UTF-8"?>
<svg id="Layer_1" data-name="Layer 1" xmlns="http://www.w3.org/2000/svg" viewBox="0 0 1024 1024">
  <defs>
    <style>
      .cls-1 {
        fill: #fff;
      }

      .cls-2 {
        opacity: .5;
      }

      .cls-3 {
        opacity: .25;
      }
    </style>
  </defs>
  <path class="cls-2" d="M364.59,1020.91h-42.54v-149.97c-95.59-10.61-170.17-91.9-170.17-190.27,0-105.56,85.88-191.44,191.44-191.44s191.44,85.88,191.44,191.44c0,98.37-74.58,179.65-170.17,190.27v149.97M343.32,531.78c-82.1,0-148.9,66.8-148.9,148.9s66.8,148.9,148.9,148.9,148.9-66.8,148.9-148.9-66.8-148.9-148.9-148.9Z"/>
  <g>
    <circle class="cls-3" cx="236.97" cy="701.84" r="21.27"/>
    <circle class="cls-3" cx="279.51" cy="744.39" r="21.27"/>
    <circle class="cls-3" cx="322.05" cy="786.93" r="21.27"/>
    <circle class="cls-3" cx="300.78" cy="680.57" r="21.27"/>
    <circle class="cls-3" cx="343.32" cy="723.11" r="21.27"/>
    <circle class="cls-3" cx="385.87" cy="765.66" r="21.27"/>
    <circle class="cls-3" cx="258.24" cy="638.03" r="21.27"/>
    <path class="cls-1" d="M492.22,680.68c0,82.23-66.66,148.9-148.9,148.9s-148.9-66.66-148.9-148.9,66.66-148.9,148.9-148.9,148.9,66.66,148.9,148.9ZM236.97,680.57c-11.75,0-21.27,9.52-21.27,21.27s9.52,21.27,21.27,21.27,21.27-9.52,21.27-21.27-9.52-21.27-21.27-21.27ZM279.51,723.11c-11.75,0-21.27,9.52-21.27,21.27s9.52,21.27,21.27,21.27,21.27-9.52,21.27-21.27-9.52-21.27-21.27-21.27ZM322.05,765.66c-11.75,0-21.27,9.52-21.27,21.27s9.52,21.27,21.27,21.27,21.27-9.52,21.27-21.27-9.52-21.27-21.27-21.27ZM300.78,659.3c-11.75,0-21.27,9.52-21.27,21.27s9.52,21.27,21.27,21.27,21.27-9.52,21.27-21.27-9.52-21.27-21.27-21.27ZM343.32,701.84c-11.75,0-21.27,9.52-21.27,21.27s9.52,21.27,21.27,21.27,21.27-9.52,21.27-21.27-9.52-21.27-21.27-21.27ZM385.87,744.39c-11.75,0-21.27,9.52-21.27,21.27s9.52,21.27,21.27,21.27,21.27-9.52,21.27-21.27-9.52-21.27-21.27-21.27ZM258.24,616.76c-11.75,0-21.27,9.52-21.27,21.27s9.52,21.27,21.27,21.27,21.27-9.52,21.27-21.27-9.52-21.27-21.27-21.27Z"/>
  </g>
  <path class="cls-2" d="M683.66,701.95c-11.75,0-21.27-9.52-21.27-21.27,0-175.93-143.13-319.07-319.07-319.07-11.75,0-21.27-9.52-21.27-21.27s9.52-21.27,21.27-21.27c199.39,0,361.61,162.22,361.61,361.61,0,11.75-9.52,21.27-21.27,21.27Z"/>
  <path class="cls-2" d="M853.83,701.95c-11.75,0-21.27-9.52-21.27-21.27,0-269.77-219.47-489.24-489.24-489.24-11.75,0-21.27-9.52-21.27-21.27s9.52-21.27,21.27-21.27c293.22,0,531.78,238.55,531.78,531.78,0,11.75-9.52,21.27-21.27,21.27Z"/>
</svg>