<?xml version="1.0" encoding="UTF-8"?>
<svg id="Layer_1" data-name="Layer 1" xmlns="http://www.w3.org/2000/svg" viewBox="0 0 1024 1024">
  <defs>
    <style>
      .cls-1 {
        opacity: .5;
      }

      .cls-1, .cls-2, .cls-3 {
        fill: #fff;
      }

      .cls-2 {
        opacity: .75;
      }

      .cls-4 {
        fill: #7ac943;
      }
    </style>
  </defs>
  <rect class="cls-4" width="1024" height="1024"/>
  <g>
    <circle class="cls-2" cx="235.58" cy="703.9" r="21.33"/>
    <circle class="cls-2" cx="278.25" cy="746.56" r="21.33"/>
    <circle class="cls-2" cx="320.92" cy="789.23" r="21.33"/>
    <circle class="cls-2" cx="299.58" cy="682.56" r="21.33"/>
    <circle class="cls-2" cx="342.25" cy="725.23" r="21.33"/>
    <circle class="cls-2" cx="384.92" cy="767.9" r="21.33"/>
    <circle class="cls-2" cx="256.92" cy="639.9" r="21.33"/>
    <path class="cls-3" d="M491.58,682.67c0,82.47-66.86,149.33-149.33,149.33s-149.33-66.86-149.33-149.33,66.86-149.33,149.33-149.33,149.33,66.86,149.33,149.33ZM235.58,682.56c-11.78,0-21.33,9.55-21.33,21.33s9.55,21.33,21.33,21.33,21.33-9.55,21.33-21.33-9.55-21.33-21.33-21.33ZM278.25,725.23c-11.78,0-21.33,9.55-21.33,21.33s9.55,21.33,21.33,21.33,21.33-9.55,21.33-21.33-9.55-21.33-21.33-21.33ZM320.92,767.9c-11.78,0-21.33,9.55-21.33,21.33s9.55,21.33,21.33,21.33,21.33-9.55,21.33-21.33-9.55-21.33-21.33-21.33ZM299.58,661.23c-11.78,0-21.33,9.55-21.33,21.33s9.55,21.33,21.33,21.33,21.33-9.55,21.33-21.33-9.55-21.33-21.33-21.33ZM342.25,703.9c-11.78,0-21.33,9.55-21.33,21.33s9.55,21.33,21.33,21.33,21.33-9.55,21.33-21.33-9.55-21.33-21.33-21.33ZM384.92,746.56c-11.78,0-21.33,9.55-21.33,21.33s9.55,21.33,21.33,21.33,21.33-9.55,21.33-21.33-9.55-21.33-21.33-21.33ZM256.92,618.56c-11.78,0-21.33,9.55-21.33,21.33s9.55,21.33,21.33,21.33,21.33-9.55,21.33-21.33-9.55-21.33-21.33-21.33Z"/>
  </g>
  <path class="cls-1" d="M363.58,1023.9h-42.67v-150.41c-95.87-10.65-170.67-92.16-170.67-190.82,0-105.87,86.13-192,192-192s192,86.13,192,192c0,98.66-74.8,180.18-170.67,190.82v150.41M342.25,533.33c-82.34,0-149.33,66.99-149.33,149.33s66.99,149.33,149.33,149.33,149.33-66.99,149.33-149.33-66.99-149.33-149.33-149.33Z"/>
  <path class="cls-1" d="M683.58,704c-11.78,0-21.33-9.55-21.33-21.33,0-176.45-143.55-320-320-320-11.78,0-21.33-9.55-21.33-21.33s9.55-21.33,21.33-21.33c199.98,0,362.67,162.69,362.67,362.67,0,11.78-9.55,21.33-21.33,21.33Z"/>
  <path class="cls-1" d="M854.25,704c-11.78,0-21.33-9.55-21.33-21.33,0-270.56-220.11-490.67-490.67-490.67-11.78,0-21.33-9.55-21.33-21.33s9.55-21.33,21.33-21.33c294.08,0,533.33,239.25,533.33,533.33,0,11.78-9.55,21.33-21.33,21.33Z"/>
</svg>